<mxfile host="app.diagrams.net" modified="2023-04-28T08:00:48.567Z" agent="Mozilla/5.0 (Windows NT 10.0; Win64; x64) AppleWebKit/537.36 (KHTML, like Gecko) Chrome/112.0.0.0 Safari/537.36" etag="D0TTPFKbBg5uKNuwae7c" version="21.2.3" type="github">
  <diagram name="第 1 页" id="ldlYSySZRPUg6WXVIPtm">
    <mxGraphModel dx="2198" dy="804" grid="0" gridSize="10" guides="1" tooltips="1" connect="1" arrows="1" fold="1" page="1" pageScale="1" pageWidth="827" pageHeight="1169" math="0" shadow="0">
      <root>
        <mxCell id="0" />
        <mxCell id="1" parent="0" />
        <mxCell id="0Gl9hoYvocWFONpUa8cy-1" value="1、消费类：继承AbsSMQMsgConsumer&lt;br&gt;2、构造方法中赋值topic，消费者组&lt;br&gt;3、@PostConstruct注解在bean注入之后执行运行方法&lt;br&gt;&lt;span style=&quot;white-space: pre;&quot;&gt;	&lt;/span&gt;向消费者管理类：SMQConsumeFacade 注册当前的消费者类&lt;br&gt;4、3中会启动一个线程用于循环消费" style="text;html=1;align=left;verticalAlign=middle;resizable=0;points=[];autosize=1;strokeColor=none;fillColor=none;" vertex="1" parent="1">
          <mxGeometry x="-146" y="122" width="371" height="84" as="geometry" />
        </mxCell>
        <mxCell id="0Gl9hoYvocWFONpUa8cy-3" value="&lt;p style=&quot;margin:0px;margin-top:4px;text-align:center;&quot;&gt;SMQConsumeFacade（消费者门面）&lt;br&gt;&lt;/p&gt;&lt;hr size=&quot;1&quot;&gt;&lt;p style=&quot;margin:0px;margin-left:4px;&quot;&gt;+ field: Type&lt;/p&gt;&lt;hr size=&quot;1&quot;&gt;&lt;p style=&quot;margin:0px;margin-left:4px;&quot;&gt;+&amp;nbsp;consumeProcess(AbsSMQMsgConsumer): Type // 消费进程 &lt;b&gt;&lt;font color=&quot;#ff3333&quot; style=&quot;font-size: 19px;&quot;&gt;4&lt;/font&gt;&lt;/b&gt;&lt;/p&gt;&lt;p style=&quot;margin:0px;margin-left:4px;&quot;&gt;&amp;nbsp; &amp;nbsp; &amp;nbsp; &amp;nbsp;subscribeTopic&lt;/p&gt;&lt;p style=&quot;margin:0px;margin-left:4px;&quot;&gt;&lt;/p&gt;&lt;span style=&quot;&quot;&gt;	&lt;/span&gt;&lt;span style=&quot;&quot;&gt;	&lt;/span&gt;&lt;span style=&quot;&quot;&gt;	&lt;/span&gt;&lt;span style=&quot;white-space: pre;&quot;&gt;	&lt;/span&gt;consumeMsg &lt;b&gt;&lt;font color=&quot;#e91616&quot; style=&quot;font-size: 20px;&quot;&gt;6&lt;/font&gt;&lt;/b&gt;：用Iconsumer拉取消息，调用业务消息消费者消费消息&lt;br&gt;&lt;p style=&quot;margin:0px;margin-left:4px;&quot;&gt;+ subscribeTopic（AbsSMQMsgConsumer，&amp;nbsp;IConsumer&amp;lt;?, ?&amp;gt; consumer&lt;span style=&quot;background-color: rgb(43, 43, 43); color: rgb(169, 183, 198); font-family: &amp;quot;JetBrains Mono&amp;quot;, monospace; font-size: 9.8pt;&quot;&gt;&lt;/span&gt;&lt;span style=&quot;background-color: initial;&quot;&gt;）//&amp;nbsp; 订阅&lt;/span&gt;&lt;/p&gt;&lt;p style=&quot;margin:0px;margin-left:4px;&quot;&gt;&amp;nbsp;&lt;span style=&quot;&quot;&gt;	&lt;/span&gt;&lt;/p&gt;&lt;p style=&quot;margin:0px;margin-left:4px;&quot;&gt;+ consumeMsg(AbsSMQMsgConsumer msgConsumer, IConsumer&amp;lt;?, ?&amp;gt; consumer&lt;span style=&quot;background-color: initial;&quot;&gt;）&lt;b&gt;&lt;font color=&quot;#ff3333&quot; style=&quot;font-size: 20px;&quot;&gt;3&lt;/font&gt;&lt;/b&gt; // 消费&lt;/span&gt;&lt;/p&gt;&lt;p style=&quot;margin:0px;margin-left:4px;&quot;&gt;&lt;span style=&quot;background-color: initial;&quot;&gt;&lt;br&gt;&lt;/span&gt;&lt;/p&gt;&lt;p style=&quot;margin:0px;margin-left:4px;&quot;&gt;&lt;span style=&quot;background-color: initial;&quot;&gt;+1 buildConsumer: 获取这个消费者组的 Iconsumer &lt;b&gt;&lt;font color=&quot;#e91616&quot; style=&quot;font-size: 19px;&quot;&gt;1&lt;/font&gt;&lt;/b&gt;&lt;/span&gt;&lt;/p&gt;" style="verticalAlign=top;align=left;overflow=fill;fontSize=12;fontFamily=Helvetica;html=1;whiteSpace=wrap;" vertex="1" parent="1">
          <mxGeometry x="-319" y="365" width="581" height="187" as="geometry" />
        </mxCell>
        <mxCell id="0Gl9hoYvocWFONpUa8cy-9" value="MockConsumerImpl（）" style="swimlane;fontStyle=0;childLayout=stackLayout;horizontal=1;startSize=26;fillColor=none;horizontalStack=0;resizeParent=1;resizeParentMax=0;resizeLast=0;collapsible=1;marginBottom=0;whiteSpace=wrap;html=1;" vertex="1" parent="1">
          <mxGeometry x="358" y="470" width="547" height="104" as="geometry" />
        </mxCell>
        <mxCell id="0Gl9hoYvocWFONpUa8cy-10" value="+&amp;nbsp;topicConsumerMap&lt;span style=&quot;background-color: initial;&quot;&gt;:&lt;/span&gt;" style="text;strokeColor=none;fillColor=none;align=left;verticalAlign=top;spacingLeft=4;spacingRight=4;overflow=hidden;rotatable=0;points=[[0,0.5],[1,0.5]];portConstraint=eastwest;whiteSpace=wrap;html=1;" vertex="1" parent="0Gl9hoYvocWFONpUa8cy-9">
          <mxGeometry y="26" width="547" height="26" as="geometry" />
        </mxCell>
        <mxCell id="0Gl9hoYvocWFONpUa8cy-11" value="+&amp;nbsp;consumerTopicListMap&lt;span style=&quot;background-color: initial;&quot;&gt;: type&lt;/span&gt;" style="text;strokeColor=default;fillColor=none;align=left;verticalAlign=top;spacingLeft=4;spacingRight=4;overflow=hidden;rotatable=0;points=[[0,0.5],[1,0.5]];portConstraint=eastwest;whiteSpace=wrap;html=1;" vertex="1" parent="0Gl9hoYvocWFONpUa8cy-9">
          <mxGeometry y="52" width="547" height="26" as="geometry" />
        </mxCell>
        <mxCell id="0Gl9hoYvocWFONpUa8cy-12" value="+&amp;nbsp;curConsumerProperties&lt;span style=&quot;background-color: initial;&quot;&gt;: // 配置信息：消费者组id，单次拉取消息数量（max.poll.records）&lt;/span&gt;" style="text;strokeColor=default;fillColor=none;align=left;verticalAlign=top;spacingLeft=4;spacingRight=4;overflow=hidden;rotatable=0;points=[[0,0.5],[1,0.5]];portConstraint=eastwest;whiteSpace=wrap;html=1;" vertex="1" parent="0Gl9hoYvocWFONpUa8cy-9">
          <mxGeometry y="78" width="547" height="26" as="geometry" />
        </mxCell>
        <mxCell id="0Gl9hoYvocWFONpUa8cy-15" style="edgeStyle=orthogonalEdgeStyle;rounded=0;orthogonalLoop=1;jettySize=auto;html=1;entryX=0.45;entryY=-0.019;entryDx=0;entryDy=0;entryPerimeter=0;" edge="1" parent="1" source="0Gl9hoYvocWFONpUa8cy-13" target="0Gl9hoYvocWFONpUa8cy-9">
          <mxGeometry relative="1" as="geometry" />
        </mxCell>
        <mxCell id="0Gl9hoYvocWFONpUa8cy-13" value="&lt;p style=&quot;margin:0px;margin-top:4px;text-align:center;&quot;&gt;&lt;i&gt;&amp;lt;&amp;lt;IConsumer&amp;gt;&lt;/i&gt;&lt;br&gt;&lt;b&gt;IConsumer&lt;/b&gt;&lt;/p&gt;&lt;p style=&quot;margin:0px;margin-top:4px;text-align:center;&quot;&gt;&lt;b&gt;订阅消息，&lt;/b&gt;&lt;b style=&quot;background-color: initial;&quot;&gt;拉取消息的对象&lt;/b&gt;&lt;/p&gt;&lt;p style=&quot;margin:0px;margin-top:4px;text-align:center;&quot;&gt;&lt;span style=&quot;background-color: initial;&quot;&gt;&lt;b&gt;&lt;font color=&quot;#ff3333&quot; style=&quot;font-size: 15px;&quot;&gt;一个消费者组对应一个实例&lt;/font&gt;&lt;/b&gt;&lt;/span&gt;&lt;/p&gt;&lt;hr size=&quot;1&quot;&gt;&lt;p style=&quot;margin:0px;margin-left:4px;&quot;&gt;subscribe: Type&lt;br&gt;+ field2: Type&lt;/p&gt;&lt;hr size=&quot;1&quot;&gt;&lt;p style=&quot;margin:0px;margin-left:4px;&quot;&gt;+ subscribe(Type): Type&lt;br&gt;+&amp;nbsp;unsubscribe&lt;span style=&quot;background-color: initial;&quot;&gt;(Type, Type): Type&lt;/span&gt;&lt;/p&gt;&lt;p style=&quot;margin:0px;margin-left:4px;&quot;&gt;&lt;span style=&quot;background-color: initial;&quot;&gt;+ pull&lt;/span&gt;&lt;/p&gt;&lt;p style=&quot;margin:0px;margin-left:4px;&quot;&gt;&lt;span style=&quot;background-color: initial;&quot;&gt;+ commit&lt;/span&gt;&lt;/p&gt;" style="verticalAlign=top;align=left;overflow=fill;fontSize=12;fontFamily=Helvetica;html=1;whiteSpace=wrap;" vertex="1" parent="1">
          <mxGeometry x="509" y="224" width="190" height="153" as="geometry" />
        </mxCell>
        <mxCell id="0Gl9hoYvocWFONpUa8cy-20" value="+&amp;nbsp;clusterConsumerMap&lt;span style=&quot;background-color: initial;&quot;&gt;: type&lt;/span&gt;" style="text;strokeColor=default;fillColor=none;align=left;verticalAlign=top;spacingLeft=4;spacingRight=4;overflow=hidden;rotatable=0;points=[[0,0.5],[1,0.5]];portConstraint=eastwest;whiteSpace=wrap;html=1;" vertex="1" parent="1">
          <mxGeometry x="358" y="574" width="546" height="26" as="geometry" />
        </mxCell>
        <mxCell id="0Gl9hoYvocWFONpUa8cy-21" value="kafkaConsumer：真正执行订阅的实例&lt;br&gt;一个集群ip对应一个kafkaConsumer" style="text;html=1;align=center;verticalAlign=middle;resizable=0;points=[];autosize=1;strokeColor=none;fillColor=none;fontSize=12;fontFamily=Helvetica;fontColor=default;" vertex="1" parent="1">
          <mxGeometry x="886" y="107" width="222" height="41" as="geometry" />
        </mxCell>
        <mxCell id="0Gl9hoYvocWFONpUa8cy-24" value="&lt;b&gt;&lt;font color=&quot;#ff3333&quot; style=&quot;font-size: 21px;&quot;&gt;2&lt;/font&gt;&lt;/b&gt; subscribe（订阅）&lt;br&gt;&lt;span style=&quot;&quot;&gt;&lt;/span&gt;&lt;span style=&quot;&quot;&gt;&lt;/span&gt;1、新创建KafkaConsumer并放进consumerTopicListMap或者根据topic从topicConsumerMap获取KafkaConsumer&lt;br&gt;2、&lt;br&gt;&lt;br&gt;3、遍历consumerTopicListMap，分别使用consumer订阅TopicList&lt;br&gt;&amp;nbsp;" style="html=1;whiteSpace=wrap;fontFamily=Helvetica;fontSize=12;fontColor=default;fillColor=none;gradientColor=none;align=left;" vertex="1" parent="1">
          <mxGeometry x="373" y="716" width="630" height="97" as="geometry" />
        </mxCell>
        <mxCell id="0Gl9hoYvocWFONpUa8cy-25" value="一个批次处理的时间是：300000L - 30000L =270毫秒&amp;nbsp;" style="text;html=1;align=center;verticalAlign=middle;resizable=0;points=[];autosize=1;strokeColor=none;fillColor=none;fontSize=12;fontFamily=Helvetica;fontColor=default;" vertex="1" parent="1">
          <mxGeometry x="323" y="117" width="304" height="26" as="geometry" />
        </mxCell>
      </root>
    </mxGraphModel>
  </diagram>
</mxfile>
